<!-- <svg class="svg-icon" style="width: 1em;height: 1em;vertical-align: middle;fill: currentColor;overflow: hidden;" viewBox="0 0 1024 1024" version="1.1" xmlns="http://www.w3.org/2000/svg"><path d="M472.33 813.87c-0.71-0.25-1.42-0.52-2.12-0.81 0.7 0.28 1.41 0.55 2.12 0.81zM468.2 812.19c0.37 0.17 0.75 0.32 1.12 0.48-0.44-0.19-0.87-0.37-1.3-0.57l0.18 0.09zM466.2 811.21c-0.12-0.06-0.25-0.12-0.37-0.18 0.12 0.06 0.25 0.11 0.37 0.18zM472.39 813.89c6.2 2.21 12.61 3.13 18.91 2.88-6.39 0.23-12.82-0.73-18.91-2.88zM493.35 816.65c-0.49 0.04-0.99 0.07-1.48 0.1 0.5-0.03 0.99-0.07 1.48-0.1zM495.38 816.45c-0.21 0.02-0.41 0.05-0.62 0.07 0.2-0.03 0.41-0.05 0.62-0.07zM534.37 789.55c-0.03 0.07-0.07 0.14-0.1 0.2 0.03-0.07 0.06-0.14 0.1-0.2z" fill="#FFFFFF" /><path d="M213.87 429.48c10.27 11.89 28.24 13.19 40.13 2.92 11.89-10.27 13.19-28.24 2.92-40.12l-75.86-87.77c-10.27-11.89-28.24-13.19-40.13-2.92-11.88 10.27-13.19 28.24-2.92 40.13l75.86 87.76zM367.09 326.49c3.81 15.24 19.25 24.51 34.5 20.7 15.24-3.81 24.51-19.26 20.7-34.5l-30.34-121.37c-3.81-15.24-19.25-24.5-34.5-20.69-15.24 3.81-24.51 19.26-20.7 34.5l30.34 121.36zM587.35 321.53c-4.84 14.71 2.98 30.59 17.59 35.72 14.61 5.13 30.64-2.36 36.07-16.86l42.67-121.35c4.84-14.71-2.98-30.59-17.59-35.72-14.61-5.13-30.64 2.36-36.07 16.86l-42.67 121.35zM742.18 424.9c-11.11 11.11-11.11 29.13 0 40.23 11.11 11.11 29.12 11.11 40.23 0l87.77-87.77c11.11-11.11 11.11-29.12 0-40.23-11.11-11.11-29.12-11.11-40.23 0l-87.77 87.78v-0.01z"  /><path d="M896.7 490.27c-72.47-78.33-220.75-211.38-391.9-211.38S185.37 411.94 112.9 490.27c-29.15 31.51-29.15 80.15 0 111.66 72.47 78.33 220.75 211.38 391.9 211.38s319.43-133.05 391.9-211.38c29.15-31.5 29.15-80.15 0-111.66zM504.8 674.36c-66.27 0-120-53.73-120-120s53.73-120 120-120 120 53.73 120 120-53.73 120-120 120z"  /></svg> -->

<svg viewBox="0 0 1024 1024" width="1024" height="1024" style="width: 1em;height: 1em;vertical-align: middle;fill: currentColor;overflow: hidden;" xmlns="http://www.w3.org/2000/svg">
  <path d="M472.33 813.87c-0.71-0.25-1.42-0.52-2.12-0.81 0.7 0.28 1.41 0.55 2.12 0.81zM468.2 812.19c0.37 0.17 0.75 0.32 1.12 0.48-0.44-0.19-0.87-0.37-1.3-0.57l0.18 0.09zM466.2 811.21c-0.12-0.06-0.25-0.12-0.37-0.18 0.12 0.06 0.25 0.11 0.37 0.18zM472.39 813.89c6.2 2.21 12.61 3.13 18.91 2.88-6.39 0.23-12.82-0.73-18.91-2.88zM493.35 816.65c-0.49 0.04-0.99 0.07-1.48 0.1 0.5-0.03 0.99-0.07 1.48-0.1zM495.38 816.45c-0.21 0.02-0.41 0.05-0.62 0.07 0.2-0.03 0.41-0.05 0.62-0.07zM534.37 789.55c-0.03 0.07-0.07 0.14-0.1 0.2 0.03-0.07 0.06-0.14 0.1-0.2z" fill="#FFFFFF" transform="matrix(1, 0, 0, 1, 5.684341886080802e-14, 0)"/>
  <path d="M 196.4 399.802 C 206.67 411.692 224.64 412.992 236.53 402.722 C 248.42 392.452 249.72 374.482 239.45 362.602 L 163.59 274.832 C 153.32 262.942 135.35 261.642 123.46 271.912 C 111.58 282.182 110.27 300.152 120.54 312.042 L 196.4 399.802 Z M 349.62 296.812 C 353.43 312.052 368.87 321.322 384.12 317.512 C 399.36 313.702 408.63 298.252 404.82 283.012 L 374.48 161.642 C 370.67 146.402 355.23 137.142 339.98 140.952 C 324.74 144.762 315.47 160.212 319.28 175.452 L 349.62 296.812 Z M 569.88 291.852 C 565.04 306.562 572.86 322.442 587.47 327.572 C 602.08 332.702 618.11 325.212 623.54 310.712 L 666.21 189.362 C 671.05 174.652 663.23 158.772 648.62 153.642 C 634.01 148.512 617.98 156.002 612.55 170.502 L 569.88 291.852 Z M 724.71 395.222 C 713.6 406.332 713.6 424.352 724.71 435.452 C 735.82 446.562 753.83 446.562 764.94 435.452 L 852.71 347.682 C 863.82 336.572 863.82 318.562 852.71 307.452 C 841.6 296.342 823.59 296.342 812.48 307.452 L 724.71 395.232 L 724.71 395.222 Z" style="fill: rgb(117, 121, 51);" transform="matrix(1, 0, 0, 1, 5.684341886080802e-14, 0)"/>
  <path d="M 887.078 468.017 C 814.608 389.687 666.328 256.637 495.178 256.637 C 324.028 256.637 175.748 389.687 103.278 468.017 C 74.128 499.527 74.128 548.167 103.278 579.677 C 175.748 658.007 324.028 791.057 495.178 791.057 C 666.328 791.057 814.608 658.007 887.078 579.677 C 916.228 548.177 916.228 499.527 887.078 468.017 Z M 495.178 652.107 C 428.908 652.107 375.178 598.377 375.178 532.107 C 375.178 465.837 428.908 412.107 495.178 412.107 C 561.448 412.107 615.178 465.837 615.178 532.107 C 615.178 598.377 561.448 652.107 495.178 652.107 Z" style="fill: rgb(177, 187, 38);" transform="matrix(1, 0, 0, 1, 5.684341886080802e-14, 0)"/>
  <ellipse style="fill: rgb(177, 187, 38); paint-order: fill; fill-rule: nonzero; stroke: rgba(108, 108, 108, 0);" cx="572.488" cy="451.68" rx="65.869" ry="64.675" transform="matrix(1, 0, 0, 1, 5.684341886080802e-14, 0)"/>
</svg>