<!-- <svg class="svg-icon" style="width: 1em;height: 1em;vertical-align: middle;fill: currentColor;overflow: hidden;" viewBox="0 0 1024 1024" version="1.1" xmlns="http://www.w3.org/2000/svg"><path d="M130.859008 309.035008c59.551744 63.721472 142.072832 113.575936 223.08352 141.656064 204.224512 70.776832 400.790528-0.528384 558.675968-141.656064 29.75232-26.591232 73.49248 17.729536 43.543552 44.488704-20.455424 18.286592-41.659392 35.634176-63.526912 51.862528 18.356224 36.08064 36.703232 72.1408 55.06048 108.20096 18.302976 35.960832-34.85696 67.776512-53.19168 31.752192-19.87584-39.112704-39.785472-78.168064-59.669504-117.248l6.393856 12.560384c-36.478976 23.02464-74.477568 42.846208-113.641472 58.73664l44.539904 116.064256c14.374912 37.4528-43.885568 53.720064-58.943488 17.829888l-0.443392-1.103872-43.1616-112.452608c-40.722432 12.041216-82.463744 19.688448-124.855296 22.187008l-4.576256 0.249856 0.038912 0.759808c0.01024 0.258048 0.018432 0.518144 0.023552 0.77824l0.008192 0.790528v132.120576c0 40.169472-60.362752 40.57088-61.570048 1.205248l-0.018432-1.205248V544.49152c0-0.999424 0.036864-1.974272 0.109568-2.924544-41.269248-2.881536-82.967552-10.881024-124.76416-24.659968-0.965632-0.31744-1.932288-0.638976-2.89792-0.96256l-47.02208 122.540032c-14.179328 36.954112-72.711168 21.413888-59.800576-15.599616l0.413696-1.128448 47.20128-123.000832a36.702208 36.702208 0 0 1 2.12992-4.595712c-36.094976-15.526912-71.549952-34.24256-104.86784-56.02816-24.143872 31.972352-48.284672 63.9488-72.431616 95.904768-10.22976 13.568-26.24512 20.799488-42.12736 11.29472-12.962816-7.76192-21.16608-29.000704-11.352064-42.628096l0.303104-0.4096 75.836416-100.410368c-18.518016-15.033344-35.97824-31.161344-52.051968-48.359424-27.411456-29.32736 16.0768-73.879552 43.551744-44.488704z m409.28768 233.11872v0.009216-0.01024z" fill="#323233" /></svg> -->

<svg viewBox="0 0 500 500" width="500" height="500" xmlns="http://www.w3.org/2000/svg">
  <path d="M 78.264 171.96 C 103.396 202.048 138.222 225.588 172.41 238.847 C 258.598 272.267 341.553 238.597 408.184 171.96 C 420.74 159.404 439.2 180.331 426.561 192.966 C 417.928 201.601 408.98 209.793 399.751 217.455 C 407.498 234.492 415.241 251.519 422.988 268.545 C 430.712 285.525 408.277 300.548 400.54 283.538 C 392.151 265.07 383.749 246.629 375.358 228.176 L 378.056 234.107 C 362.661 244.978 346.625 254.338 330.097 261.841 L 348.894 316.644 C 354.96 334.328 330.373 342.009 324.018 325.063 L 323.831 324.541 L 305.616 271.444 C 288.43 277.129 270.814 280.741 252.924 281.92 L 250.992 282.039 L 251.009 282.397 C 251.014 282.519 251.017 282.642 251.019 282.765 L 251.022 283.138 L 251.022 345.523 C 251.022 364.489 225.548 364.679 225.038 346.092 L 225.031 345.523 L 225.031 283.138 C 225.031 282.666 225.047 282.206 225.077 281.757 C 207.66 280.396 190.062 276.619 172.423 270.113 C 172.016 269.963 171.608 269.811 171.201 269.658 L 151.356 327.519 C 145.372 344.968 120.671 337.63 126.119 320.154 L 126.294 319.62 L 146.213 261.542 C 146.468 260.797 146.769 260.072 147.113 259.372 C 131.88 252.041 116.917 243.204 102.856 232.917 C 92.666 248.013 82.479 263.112 72.288 278.201 C 67.97 284.607 61.212 288.023 54.509 283.534 C 49.038 279.869 45.577 269.841 49.718 263.406 L 49.846 263.213 L 81.851 215.801 C 74.036 208.702 66.667 201.087 59.884 192.966 C 48.315 179.119 66.669 158.082 78.264 171.96 Z M 250.992 282.034 L 250.992 282.039 L 250.992 282.033 L 250.992 282.034 Z" style="fill: rgb(177, 187, 38);" transform="matrix(1, 0, 0, 1, 0, -1.1368683772161603e-13)"/>
</svg>